<svg width="370" height="250" viewBox="0 0 370 250" fill="none" xmlns="http://www.w3.org/2000/svg">
<g filter="url(#filter0_d)">
<mask id="mask0" style="mask-type:alpha" maskUnits="userSpaceOnUse" x="25" y="13" width="320" height="200">
<path d="M324 13H46C34.402 13 25 22.402 25 34V192C25 203.598 34.402 213 46 213H324C335.598 213 345 203.598 345 192V34C345 22.402 335.598 13 324 13Z" fill="white"/>
</mask>
<g mask="url(#mask0)">
<path d="M324 13H46C34.402 13 25 22.402 25 34V192C25 203.598 34.402 213 46 213H324C335.598 213 345 203.598 345 192V34C345 22.402 335.598 13 324 13Z" fill="#7879F1"/>
<path style="mix-blend-mode:soft-light" opacity="0.7" fill-rule="evenodd" clip-rule="evenodd" d="M339 -47C309.161 60.0943 270.129 131.579 221.905 167.453C173.68 203.327 102.379 218.01 8.00003 211.5V-47H339Z" fill="url(#paint0_linear)"/>
<g style="mix-blend-mode:overlay" opacity="0.4">
<path fill-rule="evenodd" clip-rule="evenodd" d="M419 -47C382.85 60.0943 335.564 131.579 277.141 167.453C218.718 203.327 132.338 218.01 18 211.5V-47H419Z" fill="url(#paint1_linear)" style="mix-blend-mode:soft-light"/>
</g>
<path style="mix-blend-mode:soft-light" opacity="0.6" fill-rule="evenodd" clip-rule="evenodd" d="M257.405 -83.3776C260.31 9.28058 244.376 77.827 209.603 122.262C174.83 166.696 112.383 202.951 22.2624 231.027L-52.0959 32.6107L257.405 -83.3776Z" fill="url(#paint2_linear)"/>
</g>
<path d="M52.264 179.096C51.784 179.096 51.3413 178.984 50.936 178.76C50.5307 178.525 50.2107 178.205 49.976 177.8C49.752 177.395 49.64 176.941 49.64 176.44C49.64 175.939 49.752 175.491 49.976 175.096C50.2107 174.691 50.5253 174.376 50.92 174.152C51.3253 173.928 51.7733 173.816 52.264 173.816C52.7547 173.816 53.2027 173.928 53.608 174.152C54.0133 174.376 54.3333 174.691 54.568 175.096C54.8027 175.491 54.92 175.939 54.92 176.44C54.92 176.941 54.8027 177.395 54.568 177.8C54.3333 178.205 54.0133 178.525 53.608 178.76C53.2027 178.984 52.7547 179.096 52.264 179.096ZM64.2314 179.096C63.7514 179.096 63.3087 178.984 62.9034 178.76C62.498 178.525 62.178 178.205 61.9434 177.8C61.7194 177.395 61.6074 176.941 61.6074 176.44C61.6074 175.939 61.7194 175.491 61.9434 175.096C62.178 174.691 62.4927 174.376 62.8874 174.152C63.2927 173.928 63.7407 173.816 64.2314 173.816C64.722 173.816 65.17 173.928 65.5754 174.152C65.9807 174.376 66.3007 174.691 66.5354 175.096C66.77 175.491 66.8874 175.939 66.8874 176.44C66.8874 176.941 66.77 177.395 66.5354 177.8C66.3007 178.205 65.9807 178.525 65.5754 178.76C65.17 178.984 64.722 179.096 64.2314 179.096ZM76.1987 179.096C75.7187 179.096 75.2761 178.984 74.8707 178.76C74.4654 178.525 74.1454 178.205 73.9107 177.8C73.6867 177.395 73.5747 176.941 73.5747 176.44C73.5747 175.939 73.6867 175.491 73.9107 175.096C74.1454 174.691 74.4601 174.376 74.8547 174.152C75.2601 173.928 75.7081 173.816 76.1987 173.816C76.6894 173.816 77.1374 173.928 77.5427 174.152C77.9481 174.376 78.2681 174.691 78.5027 175.096C78.7374 175.491 78.8547 175.939 78.8547 176.44C78.8547 176.941 78.7374 177.395 78.5027 177.8C78.2681 178.205 77.9481 178.525 77.5427 178.76C77.1374 178.984 76.6894 179.096 76.1987 179.096ZM88.1661 179.096C87.6861 179.096 87.2435 178.984 86.8381 178.76C86.4328 178.525 86.1128 178.205 85.8781 177.8C85.6541 177.395 85.5421 176.941 85.5421 176.44C85.5421 175.939 85.6541 175.491 85.8781 175.096C86.1128 174.691 86.4275 174.376 86.8221 174.152C87.2275 173.928 87.6755 173.816 88.1661 173.816C88.6568 173.816 89.1048 173.928 89.5101 174.152C89.9155 174.376 90.2355 174.691 90.4701 175.096C90.7048 175.491 90.8221 175.939 90.8221 176.44C90.8221 176.941 90.7048 177.395 90.4701 177.8C90.2355 178.205 89.9155 178.525 89.5101 178.76C89.1048 178.984 88.6568 179.096 88.1661 179.096Z" fill="white"/>
<path d="M74.4077 39.5667H63.5923V58.4333H74.4077V39.5667Z" fill="#FF5F00"/>
<path d="M64.279 49C64.279 45.1667 66.133 41.7667 68.9828 39.5667C66.8884 37.9667 64.2446 37 61.3605 37C54.5279 37 49 42.3667 49 49C49 55.6333 54.5279 61 61.3605 61C64.2446 61 66.8884 60.0333 68.9828 58.4333C66.133 56.2667 64.279 52.8333 64.279 49Z" fill="#EB001B"/>
<path d="M89 49C89 55.6333 83.4721 61 76.6395 61C73.7554 61 71.1116 60.0333 69.0172 58.4333C71.9013 56.2333 73.721 52.8333 73.721 49C73.721 45.1667 71.8669 41.7667 69.0172 39.5667C71.1116 37.9667 73.7554 37 76.6395 37C83.4721 37 89 42.4 89 49Z" fill="#F79E1B"/>
</g>
<defs>
<filter id="filter0_d" x="0" y="0" width="370" height="250" filterUnits="userSpaceOnUse" color-interpolation-filters="sRGB">
<feFlood flood-opacity="0" result="BackgroundImageFix"/>
<feColorMatrix in="SourceAlpha" type="matrix" values="0 0 0 0 0 0 0 0 0 0 0 0 0 0 0 0 0 0 127 0" result="hardAlpha"/>
<feOffset dy="12"/>
<feGaussianBlur stdDeviation="12.5"/>
<feColorMatrix type="matrix" values="0 0 0 0 0.0604107 0 0 0 0 0.199302 0 0 0 0 0.419214 0 0 0 0.25 0"/>
<feBlend mode="normal" in2="BackgroundImageFix" result="effect1_dropShadow"/>
<feBlend mode="normal" in="SourceGraphic" in2="effect1_dropShadow" result="shape"/>
</filter>
<linearGradient id="paint0_linear" x1="-0.886016" y1="136.329" x2="208.744" y2="-83.7809" gradientUnits="userSpaceOnUse">
<stop stop-color="#EEEEEE"/>
<stop offset="1" stop-color="#D8D8D8" stop-opacity="0"/>
</linearGradient>
<linearGradient id="paint1_linear" x1="7.23477" y1="136.329" x2="211.181" y2="-123.1" gradientUnits="userSpaceOnUse">
<stop stop-color="#EEEEEE"/>
<stop offset="1" stop-color="#D8D8D8" stop-opacity="0"/>
</linearGradient>
<linearGradient id="paint2_linear" x1="-7.6696" y1="176.442" x2="73.726" y2="-82.1159" gradientUnits="userSpaceOnUse">
<stop stop-color="#EEEEEE"/>
<stop offset="1" stop-color="#D8D8D8" stop-opacity="0"/>
</linearGradient>
</defs>
</svg>
