<svg width="45" height="45" viewBox="0 0 45 45" fill="none" xmlns="http://www.w3.org/2000/svg">
<path d="M36.4313 24.3375C36.5063 23.7375 36.5625 23.1375 36.5625 22.5C36.5625 21.8625 36.5063 21.2625 36.4313 20.6625L40.3875 17.5688C40.7438 17.2875 40.8375 16.7813 40.6125 16.3688L36.8625 9.88125C36.6938 9.58125 36.375 9.4125 36.0375 9.4125C35.925 9.4125 35.8125 9.43125 35.7188 9.46875L31.05 11.3438C30.075 10.5938 29.025 9.975 27.8813 9.50625L27.1688 4.5375C27.1125 4.0875 26.7188 3.75 26.25 3.75H18.75C18.2813 3.75 17.8875 4.0875 17.8313 4.5375L17.1188 9.50625C15.975 9.975 14.925 10.6125 13.95 11.3438L9.28125 9.46875C9.16875 9.43125 9.05625 9.4125 8.94375 9.4125C8.625 9.4125 8.30625 9.58125 8.1375 9.88125L4.3875 16.3688C4.14375 16.7813 4.25625 17.2875 4.6125 17.5688L8.56875 20.6625C8.49375 21.2625 8.4375 21.8813 8.4375 22.5C8.4375 23.1188 8.49375 23.7375 8.56875 24.3375L4.6125 27.4313C4.25625 27.7125 4.1625 28.2188 4.3875 28.6313L8.1375 35.1188C8.30625 35.4188 8.625 35.5875 8.9625 35.5875C9.075 35.5875 9.1875 35.5688 9.28125 35.5313L13.95 33.6563C14.925 34.4063 15.975 35.025 17.1188 35.4938L17.8313 40.4625C17.8875 40.9125 18.2813 41.25 18.75 41.25H26.25C26.7188 41.25 27.1125 40.9125 27.1688 40.4625L27.8813 35.4938C29.025 35.025 30.075 34.3875 31.05 33.6563L35.7188 35.5313C35.8313 35.5688 35.9438 35.5875 36.0563 35.5875C36.375 35.5875 36.6938 35.4188 36.8625 35.1188L40.6125 28.6313C40.8375 28.2188 40.7438 27.7125 40.3875 27.4313L36.4313 24.3375V24.3375ZM32.7188 21.1313C32.7938 21.7125 32.8125 22.1063 32.8125 22.5C32.8125 22.8938 32.775 23.3063 32.7188 23.8688L32.4563 25.9875L34.125 27.3L36.15 28.875L34.8375 31.1438L32.4563 30.1875L30.5063 29.4L28.8188 30.675C28.0125 31.275 27.2438 31.725 26.475 32.0438L24.4875 32.85L24.1875 34.9688L23.8125 37.5H21.1875L20.8313 34.9688L20.5313 32.85L18.5438 32.0438C17.7375 31.7063 16.9875 31.275 16.2375 30.7125L14.5313 29.4L12.5438 30.2063L10.1625 31.1625L8.85 28.8938L10.875 27.3188L12.5438 26.0063L12.2813 23.8875C12.225 23.3063 12.1875 22.875 12.1875 22.5C12.1875 22.125 12.225 21.6938 12.2813 21.1313L12.5438 19.0125L10.875 17.7L8.85 16.125L10.1625 13.8563L12.5438 14.8125L14.4938 15.6L16.1813 14.325C16.9875 13.725 17.7563 13.275 18.525 12.9563L20.5125 12.15L20.8125 10.0313L21.1875 7.5H23.7938L24.15 10.0313L24.45 12.15L26.4375 12.9563C27.2438 13.2938 27.9938 13.725 28.7438 14.2875L30.45 15.6L32.4375 14.7938L34.8188 13.8375L36.1313 16.1063L34.125 17.7L32.4563 19.0125L32.7188 21.1313ZM22.5 15C18.3563 15 15 18.3563 15 22.5C15 26.6438 18.3563 30 22.5 30C26.6438 30 30 26.6438 30 22.5C30 18.3563 26.6438 15 22.5 15ZM22.5 26.25C20.4375 26.25 18.75 24.5625 18.75 22.5C18.75 20.4375 20.4375 18.75 22.5 18.75C24.5625 18.75 26.25 20.4375 26.25 22.5C26.25 24.5625 24.5625 26.25 22.5 26.25Z" fill="#FAFAFA"/>
</svg>
