<svg width="370" height="250" viewBox="0 0 370 250" fill="none" xmlns="http://www.w3.org/2000/svg">
<g filter="url(#filter0_d)">
<mask id="mask0" style="mask-type:alpha" maskUnits="userSpaceOnUse" x="25" y="13" width="320" height="200">
<path d="M324 13H46C34.402 13 25 22.402 25 34V192C25 203.598 34.402 213 46 213H324C335.598 213 345 203.598 345 192V34C345 22.402 335.598 13 324 13Z" fill="white"/>
</mask>
<g mask="url(#mask0)">
<path d="M324 13H46C34.402 13 25 22.402 25 34V192C25 203.598 34.402 213 46 213H324C335.598 213 345 203.598 345 192V34C345 22.402 335.598 13 324 13Z" fill="url(#paint0_linear)"/>
<path style="mix-blend-mode:soft-light" opacity="0.5" fill-rule="evenodd" clip-rule="evenodd" d="M13.7889 221.375C43.585 133.59 82.5604 74.9946 130.715 45.5885C178.869 16.1824 250.068 4.14726 344.31 9.48306V221.375H13.7889Z" fill="url(#paint1_linear)"/>
<path style="mix-blend-mode:soft-light" opacity="0.5" fill-rule="evenodd" clip-rule="evenodd" d="M87 221.121C116.796 133.336 155.771 74.7408 203.926 45.3347C252.081 15.9286 323.279 3.89348 417.521 9.22928V221.121H87Z" fill="url(#paint2_linear)"/>
<path style="mix-blend-mode:multiply" opacity="0.5" fill-rule="evenodd" clip-rule="evenodd" d="M20.1708 221.121C22.5038 163.819 70.0229 145.338 162.728 165.679C255.433 186.019 318.464 128.322 351.819 -7.41417L360.226 221.121H20.1708Z" fill="url(#paint3_linear)"/>
</g>
<path d="M52.264 179.096C51.784 179.096 51.3413 178.984 50.936 178.76C50.5307 178.525 50.2107 178.205 49.976 177.8C49.752 177.395 49.64 176.941 49.64 176.44C49.64 175.939 49.752 175.491 49.976 175.096C50.2107 174.691 50.5253 174.376 50.92 174.152C51.3253 173.928 51.7733 173.816 52.264 173.816C52.7547 173.816 53.2027 173.928 53.608 174.152C54.0133 174.376 54.3333 174.691 54.568 175.096C54.8027 175.491 54.92 175.939 54.92 176.44C54.92 176.941 54.8027 177.395 54.568 177.8C54.3333 178.205 54.0133 178.525 53.608 178.76C53.2027 178.984 52.7547 179.096 52.264 179.096ZM64.2314 179.096C63.7514 179.096 63.3087 178.984 62.9034 178.76C62.498 178.525 62.178 178.205 61.9434 177.8C61.7194 177.395 61.6074 176.941 61.6074 176.44C61.6074 175.939 61.7194 175.491 61.9434 175.096C62.178 174.691 62.4927 174.376 62.8874 174.152C63.2927 173.928 63.7407 173.816 64.2314 173.816C64.722 173.816 65.17 173.928 65.5754 174.152C65.9807 174.376 66.3007 174.691 66.5354 175.096C66.77 175.491 66.8874 175.939 66.8874 176.44C66.8874 176.941 66.77 177.395 66.5354 177.8C66.3007 178.205 65.9807 178.525 65.5754 178.76C65.17 178.984 64.722 179.096 64.2314 179.096ZM76.1987 179.096C75.7187 179.096 75.2761 178.984 74.8707 178.76C74.4654 178.525 74.1454 178.205 73.9107 177.8C73.6867 177.395 73.5747 176.941 73.5747 176.44C73.5747 175.939 73.6867 175.491 73.9107 175.096C74.1454 174.691 74.4601 174.376 74.8547 174.152C75.2601 173.928 75.7081 173.816 76.1987 173.816C76.6894 173.816 77.1374 173.928 77.5427 174.152C77.9481 174.376 78.2681 174.691 78.5027 175.096C78.7374 175.491 78.8547 175.939 78.8547 176.44C78.8547 176.941 78.7374 177.395 78.5027 177.8C78.2681 178.205 77.9481 178.525 77.5427 178.76C77.1374 178.984 76.6894 179.096 76.1987 179.096ZM88.1661 179.096C87.6861 179.096 87.2435 178.984 86.8381 178.76C86.4328 178.525 86.1128 178.205 85.8781 177.8C85.6541 177.395 85.5421 176.941 85.5421 176.44C85.5421 175.939 85.6541 175.491 85.8781 175.096C86.1128 174.691 86.4275 174.376 86.8221 174.152C87.2275 173.928 87.6755 173.816 88.1661 173.816C88.6568 173.816 89.1048 173.928 89.5101 174.152C89.9155 174.376 90.2355 174.691 90.4701 175.096C90.7048 175.491 90.8221 175.939 90.8221 176.44C90.8221 176.941 90.7048 177.395 90.4701 177.8C90.2355 178.205 89.9155 178.525 89.5101 178.76C89.1048 178.984 88.6568 179.096 88.1661 179.096Z" fill="white"/>
<path fill-rule="evenodd" clip-rule="evenodd" d="M101.397 38.0109L100.559 42.9905C98.0449 41.5672 92.3231 41.2304 92.3231 43.8514C92.3231 44.8929 93.6177 45.6091 95.1781 46.4724C97.5445 47.7817 100.522 49.4291 100.522 53.062C100.522 58.8665 94.4732 61 90.4646 61C86.4559 61 83.8326 59.6901 83.8326 59.6901L84.7066 54.4848C87.1115 56.4688 94.4002 57.0319 94.4002 53.8863C94.4002 52.5646 92.9656 51.785 91.302 50.8811C89.0062 49.6336 86.2742 48.1491 86.2742 44.6756C86.2742 38.3099 93.1978 37 96.1133 37C98.8102 37 101.397 38.0109 101.397 38.0109ZM115.605 60.6006H121L116.297 37.4143H111.573C109.392 37.4143 108.861 39.1422 108.861 39.1422L100.1 60.6006H106.223L107.448 57.1566H114.917L115.605 60.6006ZM109.141 52.399L112.228 43.7224L113.964 52.399H109.141ZM63.7942 53.3622L69.3952 37.4149H75.7181L66.371 60.6012H60.2497L55.1455 40.4583C51.8322 38.4128 49 37.8075 49 37.8075L49.1087 37.4149H58.3682C60.9161 37.4149 61.1551 39.5031 61.1551 39.5031L63.132 49.9294L63.1314 49.9281L63.7942 53.3622ZM74.3376 60.6006H80.2127L83.8851 37.4149H78.0095L74.3376 60.6006Z" fill="white"/>
</g>
<defs>
<filter id="filter0_d" x="0" y="0" width="370" height="250" filterUnits="userSpaceOnUse" color-interpolation-filters="sRGB">
<feFlood flood-opacity="0" result="BackgroundImageFix"/>
<feColorMatrix in="SourceAlpha" type="matrix" values="0 0 0 0 0 0 0 0 0 0 0 0 0 0 0 0 0 0 127 0" result="hardAlpha"/>
<feOffset dy="12"/>
<feGaussianBlur stdDeviation="12.5"/>
<feColorMatrix type="matrix" values="0 0 0 0 0.0604107 0 0 0 0 0.199302 0 0 0 0 0.419214 0 0 0 0.25 0"/>
<feBlend mode="normal" in2="BackgroundImageFix" result="effect1_dropShadow"/>
<feBlend mode="normal" in="SourceGraphic" in2="effect1_dropShadow" result="shape"/>
</filter>
<linearGradient id="paint0_linear" x1="345" y1="213" x2="211.803" y2="-50.4983" gradientUnits="userSpaceOnUse">
<stop stop-color="#01ADEF"/>
<stop offset="1" stop-color="#0860BF"/>
</linearGradient>
<linearGradient id="paint1_linear" x1="353.183" y1="71.1004" x2="186.229" y2="284.651" gradientUnits="userSpaceOnUse">
<stop stop-color="#EEEEEE"/>
<stop offset="1" stop-color="#D8D8D8" stop-opacity="0"/>
</linearGradient>
<linearGradient id="paint2_linear" x1="426.394" y1="70.8466" x2="259.44" y2="284.397" gradientUnits="userSpaceOnUse">
<stop stop-color="#EEEEEE"/>
<stop offset="1" stop-color="#D8D8D8" stop-opacity="0"/>
</linearGradient>
<linearGradient id="paint3_linear" x1="369.355" y1="59.9778" x2="188.676" y2="281.714" gradientUnits="userSpaceOnUse">
<stop stop-color="#EEEEEE"/>
<stop offset="1" stop-color="#D8D8D8" stop-opacity="0"/>
</linearGradient>
</defs>
</svg>
