<svg width="72" height="24" viewBox="0 0 72 24" fill="none" xmlns="http://www.w3.org/2000/svg">
<path fill-rule="evenodd" clip-rule="evenodd" d="M52.3974 1.01093L51.5589 5.99054C49.0449 4.56717 43.3231 4.2304 43.3231 6.85138C43.3231 7.89286 44.6177 8.60912 46.1781 9.47241C48.5445 10.7817 51.5221 12.4291 51.5221 16.062C51.5221 21.8665 45.4732 24 41.4646 24C37.4559 24 34.8326 22.6901 34.8326 22.6901L35.7066 17.4848C38.1115 19.4688 45.4002 20.0319 45.4002 16.8863C45.4002 15.5646 43.9656 14.785 42.302 13.8811C40.0062 12.6336 37.2742 11.1491 37.2742 7.67563C37.2742 1.30987 44.1978 0 47.1133 0C49.8102 0 52.3974 1.01093 52.3974 1.01093ZM66.6054 23.6006H72L67.2966 0.414276H62.5732C60.3923 0.414276 59.8612 2.14216 59.8612 2.14216L51.0996 23.6006H57.2233L58.4481 20.1566H65.9167L66.6054 23.6006ZM60.1406 15.399L63.2276 6.72236L64.9642 15.399H60.1406ZM14.7942 16.3622L20.3952 0.414922H26.7181L17.371 23.6012H11.2497L6.14547 3.45826C2.83219 1.41283 0 0.80751 0 0.80751L0.108652 0.414922H9.36821C11.9161 0.414922 12.1551 2.50315 12.1551 2.50315L14.132 12.9294L14.1314 12.9281L14.7942 16.3622ZM25.3376 23.6006H31.2127L34.8851 0.414922H29.0095L25.3376 23.6006Z" fill="white"/>
</svg>
